<svg xmlns="http://www.w3.org/2000/symbol" fill="none" xmlns:xlink="http://www.w3.org/1999/xlink">
  <symbol viewBox="0 0 24 24" fill="none" xmlns="http://www.w3.org/2000/svg" xmlns:xlink="http://www.w3.org/1999/xlink" id="close">
    <path d="M18 6L6 18" stroke-linecap="round" stroke-linejoin="round"/>
    <path d="M6 6L18 18" stroke-linecap="round" stroke-linejoin="round"/>
  </symbol>

  <symbol viewBox="0 0 24 24" fill="none" xmlns="http://www.w3.org/2000/svg" xmlns:xlink="http://www.w3.org/1999/xlink" id="planet">
    <path d="M3.6665 12C3.6665 16.6025 7.39734 20.3333 11.9998 20.3333C16.6023 20.3333 20.3332 16.6025 20.3332 12C20.3332 7.39746 16.6023 3.66663 11.9998 3.66663C7.39734 3.66663 3.6665 7.39746 3.6665 12Z" stroke-linecap="round" stroke-linejoin="round"/>
    <path d="M12.8333 3.70831C12.8333 3.70831 15.3333 6.99998 15.3333 12C15.3333 17 12.8333 20.2916 12.8333 20.2916" stroke-linecap="round" stroke-linejoin="round"/>
    <path d="M11.1665 20.2916C11.1665 20.2916 8.6665 17 8.6665 12C8.6665 6.99998 11.1665 3.70831 11.1665 3.70831" stroke-linecap="round" stroke-linejoin="round"/>
    <path d="M4.19141 14.9166H19.8081" stroke-linecap="round" stroke-linejoin="round"/>
    <path d="M4.19141 9.08331H19.8081" stroke-linecap="round" stroke-linejoin="round"/>
  </symbol>

  <symbol viewBox="0 0 24 24" fill="none" xmlns="http://www.w3.org/2000/svg" xmlns:xlink="http://www.w3.org/1999/xlink" id="eye">
    <path d="M12 19.5C15.6076 19.5 18.9699 17.4904 21.3102 14.01C22.2299 12.6469 22.2299 11.3532 21.3102 9.99003C18.9699 6.50967 15.6076 4.5 12 4.5C8.39244 4.5 5.03015 6.50967 2.68983 9.99003C1.77006 11.3532 1.77006 12.6469 2.68983 14.01C5.03015 17.4904 8.39244 19.5 12 19.5Z" stroke-linecap="round" stroke-linejoin="round"/>
    <path d="M12 15.25C10.2051 15.25 8.75 13.7949 8.75 12C8.75 10.2051 10.2051 8.75 12 8.75C13.7949 8.75 15.25 10.2051 15.25 12C15.25 13.7949 13.7949 15.25 12 15.25Z"/>
  </symbol>

  <symbol viewBox="0 0 24 24" xmlns="http://www.w3.org/2000/svg" xmlns:xlink="http://www.w3.org/1999/xlink" id="cart-filled">
    <path d="M5.10349 6.3845L2 3.3322L3.35413 2L6.45666 5.05324H21.043C21.1921 5.05323 21.3392 5.08752 21.4725 5.15338C21.6058 5.21924 21.7216 5.31485 21.8107 5.43256C21.8997 5.55028 21.9596 5.68685 21.9855 5.83137C22.0114 5.97589 22.0025 6.12436 21.9597 6.26493L19.663 13.7968C19.6039 13.9909 19.4828 14.161 19.3176 14.2819C19.1525 14.4028 18.9521 14.4681 18.7462 14.4681H7.01745V16.3511H17.5442V18.2341H6.06047C5.80666 18.2341 5.56325 18.1349 5.38378 17.9583C5.20431 17.7817 5.10349 17.5423 5.10349 17.2926V6.3845ZM7.01745 6.93621V12.5851H18.0342L19.7568 6.93621H7.01745ZM6.53896 22C6.15825 22 5.79313 21.8512 5.52393 21.5864C5.25472 21.3215 5.10349 20.9623 5.10349 20.5878C5.10349 20.2132 5.25472 19.854 5.52393 19.5892C5.79313 19.3243 6.15825 19.1755 6.53896 19.1755C6.91967 19.1755 7.28479 19.3243 7.55399 19.5892C7.82319 19.854 7.97443 20.2132 7.97443 20.5878C7.97443 20.9623 7.82319 21.3215 7.55399 21.5864C7.28479 21.8512 6.91967 22 6.53896 22ZM18.0227 22C17.642 22 17.2769 21.8512 17.0077 21.5864C16.7385 21.3215 16.5873 20.9623 16.5873 20.5878C16.5873 20.2132 16.7385 19.854 17.0077 19.5892C17.2769 19.3243 17.642 19.1755 18.0227 19.1755C18.4034 19.1755 18.7685 19.3243 19.0378 19.5892C19.307 19.854 19.4582 20.2132 19.4582 20.5878C19.4582 20.9623 19.307 21.3215 19.0378 21.5864C18.7685 21.8512 18.4034 22 18.0227 22Z" />
  </symbol>

  <symbol viewBox="0 0 24 24" xmlns="http://www.w3.org/2000/svg" xmlns:xlink="http://www.w3.org/1999/xlink" id="heart-filled">
    <path d="M12.0008 4.48893C14.3498 2.43526 17.9797 2.50342 20.2427 4.71094C22.5046 6.91944 22.5826 10.4367 20.4787 12.7309L11.9988 21.0001L3.52098 12.7309C1.41702 10.4367 1.49602 6.9136 3.75697 4.71094C6.02193 2.50634 9.64486 2.43234 12.0008 4.48893ZM18.8267 6.08687C17.3267 4.62428 14.9068 4.56488 13.3368 5.93789L12.0018 7.10445L10.6658 5.93886C9.09087 4.56391 6.67592 4.62428 5.17195 6.08882C3.68197 7.53973 3.60698 9.86215 4.97995 11.3968L11.9998 18.2433L19.0197 11.3978C20.3937 9.86215 20.3187 7.54265 18.8267 6.08687Z"/>
  </symbol>

  <symbol viewBox="0 0 24 24" xmlns="http://www.w3.org/2000/svg" xmlns:xlink="http://www.w3.org/1999/xlink" id="star-filled">
    <path d="M11.9995 17.7293L5.81894 21.4999L7.49918 14.4629L2 9.75754L9.21834 9.17987L11.9995 2.49994L14.7806 9.17987L22 9.75754L16.4998 14.4629L18.18 21.4999L11.9995 17.7293Z"/>
  </symbol>

  <symbol viewBox="0 0 24 24" xmlns="http://www.w3.org/2000/svg" xmlns:xlink="http://www.w3.org/1999/xlink" id="delete-filled">
    <path d="M17 6.90006H22V8.60006H20V19.6501C20 19.8755 19.8946 20.0917 19.7071 20.2511C19.5196 20.4105 19.2652 20.5001 19 20.5001H5C4.73478 20.5001 4.48043 20.4105 4.29289 20.2511C4.10536 20.0917 4 19.8755 4 19.6501V8.60006H2V6.90006H7V4.35006C7 4.12463 7.10536 3.90843 7.29289 3.74902C7.48043 3.58961 7.73478 3.50006 8 3.50006H16C16.2652 3.50006 16.5196 3.58961 16.7071 3.74902C16.8946 3.90843 17 4.12463 17 4.35006V6.90006ZM18 8.60006H6V18.8001H18V8.60006ZM13.414 13.7001L15.182 15.2029L13.768 16.4048L12 14.902L10.232 16.4048L8.818 15.2029L10.586 13.7001L8.818 12.1973L10.232 10.9954L12 12.4982L13.768 10.9954L15.182 12.1973L13.414 13.7001ZM9 5.20006V6.90006H15V5.20006H9Z"/>
  </symbol>

  <symbol viewBox="0 0 24 24" xmlns="http://www.w3.org/2000/svg" xmlns:xlink="http://www.w3.org/1999/xlink" id="minus-filled">
    <path d="M2 11H22V13H2V11Z" />
  </symbol>

  <symbol viewBox="0 0 24 24" xmlns="http://www.w3.org/2000/svg" xmlns:xlink="http://www.w3.org/1999/xlink" id="plus-filled">
    <path d="M10.5714 10.7813V3.46918H13.4286V10.7813H22V13.2187H13.4286V20.5308H10.5714V13.2187H2V10.7813H10.5714Z"/>
  </symbol>

  <symbol viewBox="0 0 24 24" xmlns="http://www.w3.org/2000/svg" xmlns:xlink="http://www.w3.org/1999/xlink" id="vk-filled">
    <path d="M2 7.02961C2 6.33984 2.38208 5.9679 3.14625 5.9138L6.09091 5.93409C6.28854 5.93409 6.42029 6.03553 6.48617 6.2384C6.7892 7.25277 7.12846 8.12851 7.50395 8.86562C7.87945 9.60273 8.37022 10.4514 8.97628 11.4117C9.02899 11.5334 9.11462 11.5943 9.2332 11.5943C9.32543 11.5943 9.39789 11.5469 9.45059 11.4523L9.50988 11.2291L9.52964 7.71938C9.52964 7.47593 9.47365 7.31364 9.36166 7.23249C9.24967 7.15134 9.04216 7.09047 8.73913 7.0499C8.50198 7.00932 8.3834 6.86055 8.3834 6.60358C8.3834 6.54948 8.38999 6.5089 8.40316 6.48185C8.67984 5.60273 9.47036 5.16317 10.7747 5.16317L11.8814 5.14288C12.3821 5.14288 12.7971 5.27137 13.1265 5.52834C13.4559 5.78532 13.6206 6.19107 13.6206 6.74559V11.3508C13.7128 11.4185 13.7984 11.4523 13.8775 11.4523C14.0751 11.4523 14.2464 11.3305 14.3913 11.0871C15.8406 9.00425 16.6245 7.61118 16.7431 6.90789C16.7431 6.89436 16.7563 6.86055 16.7826 6.80645C16.8748 6.60358 17.0264 6.42775 17.2372 6.27898C17.448 6.1302 17.6324 6.02877 17.7905 5.97467C17.8432 5.94762 17.9025 5.93409 17.9684 5.93409H21.0316L21.2292 5.95438C21.4928 5.95438 21.697 6.08287 21.8419 6.33984C21.8946 6.42099 21.9308 6.5089 21.9506 6.60358C21.9704 6.69825 21.9835 6.79293 21.9901 6.8876C21.9967 6.98227 22 7.03637 22 7.0499V7.19191C21.9078 7.74643 21.6739 8.33815 21.2984 8.96706C20.9229 9.59597 20.4453 10.2756 19.8656 11.0059C19.2859 11.7363 18.9236 12.2164 18.7787 12.4463C18.6601 12.6086 18.6008 12.7574 18.6008 12.8927C18.6008 13.0009 18.6535 13.1226 18.7589 13.2578L21.6443 16.9907C21.8024 17.2071 21.8814 17.4438 21.8814 17.7008C21.8814 18.0119 21.7628 18.2688 21.5257 18.4717C21.2885 18.6746 21.0053 18.7895 20.6759 18.8166L20.3399 18.8369H17.336C17.3228 18.8369 17.2964 18.8403 17.2569 18.847C17.2174 18.8538 17.191 18.8572 17.1779 18.8572C16.888 18.8572 16.6179 18.7287 16.3676 18.4717C16.2754 18.3635 15.6561 17.5655 14.5099 16.0778C14.444 15.9831 14.3518 15.8952 14.2332 15.8141C14.1805 16.0305 14.1113 16.3415 14.0257 16.7473C13.9401 17.153 13.8775 17.4438 13.8379 17.6196L13.7787 17.9645C13.6469 18.4379 13.3702 18.7219 12.9486 18.8166L12.6719 18.8369H10.7352C9.64163 18.8369 8.55138 18.3229 7.46443 17.295C6.37747 16.2671 5.39921 14.9383 4.52964 13.3086C3.66008 11.6788 2.8498 9.78194 2.09881 7.61795C2.03294 7.44212 2 7.24601 2 7.02961ZM13.8775 12.284C13.6008 12.284 13.3505 12.2063 13.1265 12.0507C12.9025 11.8952 12.7905 11.6822 12.7905 11.4117V6.74559C12.7905 6.47509 12.7246 6.28236 12.5929 6.1674C12.4611 6.05244 12.2306 5.99495 11.9012 5.99495L10.7747 6.03553C10.2082 6.03553 9.77997 6.13697 9.49012 6.33984C10.0698 6.62386 10.3597 7.08371 10.3597 7.71938V11.29C10.3333 11.6281 10.2016 11.9087 9.96443 12.1319C9.72727 12.3551 9.46377 12.4666 9.17391 12.4666C8.77866 12.4666 8.47563 12.2705 8.26482 11.8783C7.23715 10.2824 6.47299 8.76757 5.97233 7.33392L5.79447 6.80645L3.16601 6.78616C2.99473 6.78616 2.89921 6.79631 2.87945 6.81659C2.85968 6.83688 2.8498 6.89436 2.8498 6.98904C2.8498 7.11076 2.86298 7.23925 2.88933 7.3745L3.30435 8.51059C4.41107 11.4455 5.61331 13.7583 6.91107 15.4489C8.20883 17.1395 9.48353 17.9848 10.7352 17.9848H12.7115C12.7905 17.9848 12.8498 17.9611 12.8893 17.9138C12.9289 17.8665 12.9618 17.7752 12.9881 17.6399L13.0277 17.437L13.4032 15.6518C13.5086 15.4083 13.6008 15.246 13.6798 15.1649C13.8248 15.0161 13.996 14.9417 14.1937 14.9417C14.5099 14.9417 14.8327 15.1378 15.1621 15.53L16.8419 17.7211C16.9473 17.8969 17.0593 17.9848 17.1779 17.9848H20.4387C20.834 17.9848 21.0316 17.8834 21.0316 17.6805C21.0316 17.6129 21.0119 17.5452 20.9723 17.4776L18.1067 13.8056C17.8827 13.5216 17.7708 13.2173 17.7708 12.8927C17.7708 12.5681 17.8762 12.257 18.087 11.9595C18.2582 11.689 18.5909 11.2392 19.085 10.6103C19.5791 9.98143 20.0105 9.39309 20.3794 8.84533C20.7484 8.29757 20.9921 7.80053 21.1107 7.35421L21.17 7.09047C21.1568 7.06342 21.1502 7.01947 21.1502 6.95861C21.1502 6.89774 21.1436 6.84703 21.1304 6.80645H18.0277C17.83 6.8876 17.6719 7.00932 17.5534 7.17162L17.4348 7.55708C17.1054 8.4903 16.2424 9.93071 14.8458 11.8783C14.5692 12.1488 14.2464 12.284 13.8775 12.284Z"/>
  </symbol>

  <symbol viewBox="0 0 24 24" xmlns="http://www.w3.org/2000/svg" xmlns:xlink="http://www.w3.org/1999/xlink" id="telegram-filled">
    <path d="M12 20C14.1217 20 16.1566 19.1571 17.6569 17.6569C19.1571 16.1566 20 14.1217 20 12C20 9.87827 19.1571 7.84344 17.6569 6.34315C16.1566 4.84285 14.1217 4 12 4C9.87827 4 7.84344 4.84285 6.34315 6.34315C4.84285 7.84344 4 9.87827 4 12C4 14.1217 4.84285 16.1566 6.34315 17.6569C7.84344 19.1571 9.87827 20 12 20ZM12 22C6.477 22 2 17.523 2 12C2 6.477 6.477 2 12 2C17.523 2 22 6.477 22 12C22 17.523 17.523 22 12 22ZM8.89 13.17L6.392 12.391C5.852 12.226 5.849 11.854 6.513 11.587L16.246 7.827C16.811 7.597 17.131 7.888 16.948 8.617L15.291 16.437C15.175 16.994 14.84 17.127 14.375 16.87L11.824 14.982L10.635 16.13C10.513 16.248 10.414 16.349 10.226 16.374C10.039 16.4 9.885 16.344 9.772 16.034L8.902 13.163L8.89 13.171V13.17Z"/>
  </symbol>

  <symbol viewBox="0 0 24 24" xmlns="http://www.w3.org/2000/svg" xmlns:xlink="http://www.w3.org/1999/xlink" id="whatsapp-filled">
    <path d="M7.25301 18.494L7.97701 18.917C9.19795 19.6291 10.5866 20.0029 12 20C13.5823 20 15.129 19.5308 16.4446 18.6517C17.7602 17.7727 18.7855 16.5233 19.391 15.0615C19.9965 13.5997 20.155 11.9911 19.8463 10.4393C19.5376 8.88742 18.7757 7.46196 17.6569 6.34314C16.538 5.22432 15.1126 4.4624 13.5607 4.15372C12.0089 3.84504 10.4003 4.00346 8.93854 4.60896C7.47673 5.21446 6.2273 6.23984 5.34825 7.55543C4.4692 8.87103 4.00001 10.4177 4.00001 12C4.00001 13.436 4.37701 14.813 5.08401 16.024L5.50601 16.748L4.85301 19.149L7.25301 18.494ZM2.00401 22L3.35601 17.032C2.46515 15.5048 1.99711 13.768 2.00001 12C2.00001 6.477 6.47701 2 12 2C17.523 2 22 6.477 22 12C22 17.523 17.523 22 12 22C10.2328 22.0028 8.49667 21.5352 6.97001 20.645L2.00401 22ZM8.39101 7.308C8.52501 7.298 8.66001 7.298 8.79401 7.304C8.84801 7.308 8.90201 7.314 8.95601 7.32C9.11501 7.338 9.29001 7.435 9.34901 7.569C9.64701 8.245 9.93701 8.926 10.217 9.609C10.279 9.76099 10.242 9.95599 10.124 10.146C10.0429 10.2745 9.95507 10.3986 9.86101 10.518C9.74801 10.663 9.50501 10.929 9.50501 10.929C9.50501 10.929 9.40601 11.047 9.44401 11.194C9.45801 11.25 9.50401 11.331 9.54601 11.399L9.60501 11.494C9.86101 11.921 10.205 12.354 10.625 12.762C10.745 12.878 10.862 12.997 10.988 13.108C11.456 13.521 11.986 13.858 12.558 14.108L12.563 14.11C12.648 14.147 12.691 14.167 12.815 14.22C12.877 14.246 12.941 14.269 13.006 14.286C13.0732 14.3031 13.1439 14.2999 13.2093 14.2767C13.2746 14.2536 13.3316 14.2116 13.373 14.156C14.097 13.279 14.163 13.222 14.169 13.222V13.224C14.2193 13.1771 14.2791 13.1415 14.3443 13.1196C14.4095 13.0977 14.4786 13.09 14.547 13.097C14.607 13.101 14.668 13.112 14.724 13.137C15.255 13.38 16.124 13.759 16.124 13.759L16.706 14.02C16.804 14.067 16.893 14.178 16.896 14.285C16.9 14.352 16.906 14.46 16.883 14.658C16.851 14.917 16.773 15.228 16.695 15.391C16.6416 15.5022 16.5707 15.6042 16.485 15.693C16.3841 15.7989 16.2736 15.8953 16.155 15.981C16.114 16.0119 16.0723 16.0419 16.03 16.071C15.9056 16.1499 15.7778 16.2233 15.647 16.291C15.3895 16.4277 15.1052 16.5063 14.814 16.521C14.629 16.531 14.444 16.545 14.258 16.535C14.25 16.535 13.69 16.448 13.69 16.448C12.2683 16.074 10.9534 15.3735 9.85001 14.402C9.62401 14.203 9.41501 13.989 9.20101 13.776C8.31101 12.891 7.63901 11.936 7.23101 11.034C7.02218 10.5913 6.90938 10.1094 6.90001 9.62C6.89589 9.01285 7.09436 8.42166 7.46401 7.94C7.53701 7.846 7.60601 7.748 7.72501 7.635C7.85201 7.515 7.93201 7.451 8.01901 7.407C8.13468 7.34903 8.26087 7.31501 8.39001 7.307L8.39101 7.308Z"/>
  </symbol>

  <symbol viewBox="0 0 24 24" xmlns="http://www.w3.org/2000/svg" xmlns:xlink="http://www.w3.org/1999/xlink" id="success-filled">
    <path fill-rule="evenodd" clip-rule="evenodd" d="M22 12C22 17.5228 17.5228 22 12 22C6.47715 22 2 17.5228 2 12C2 6.47715 6.47715 2 12 2C17.5228 2 22 6.47715 22 12ZM17.2576 9.53033C17.5505 9.23744 17.5505 8.76256 17.2576 8.46967C16.9647 8.17678 16.4898 8.17678 16.1969 8.46967L10.7273 13.9393L8.53033 11.7424C8.23744 11.4495 7.76256 11.4495 7.46967 11.7424C7.17678 12.0353 7.17678 12.5102 7.46967 12.8031L10.1969 15.5303C10.4898 15.8232 10.9647 15.8232 11.2576 15.5303L17.2576 9.53033Z" />
  </symbol>

  <symbol viewBox="0 0 24 24" xmlns="http://www.w3.org/2000/svg" xmlns:xlink="http://www.w3.org/1999/xlink" id="error-filled">
    <path fill-rule="evenodd" clip-rule="evenodd" d="M2 8C2 4.68628 4.68629 2 8 2H16C19.3137 2 22 4.68628 22 8V16C22 19.3137 19.3137 22 16 22H8C4.68629 22 2 19.3137 2 16V8ZM15.5303 8.46967C15.8232 8.76257 15.8232 9.23743 15.5303 9.53033L13.0607 12L15.5303 14.4697C15.8232 14.7626 15.8232 15.2374 15.5303 15.5303C15.2374 15.8232 14.7626 15.8232 14.4697 15.5303L12 13.0607L9.53033 15.5303C9.23743 15.8232 8.76257 15.8232 8.46967 15.5303C8.17677 15.2374 8.17677 14.7626 8.46967 14.4697L10.9393 12L8.46967 9.53033C8.17677 9.23743 8.17677 8.76257 8.46967 8.46967C8.76257 8.17679 9.23743 8.17679 9.53033 8.46967L12 10.9393L14.4697 8.46967C14.7626 8.17679 15.2374 8.17679 15.5303 8.46967Z" />
  </symbol>

  <symbol viewBox="0 0 24 24" xmlns="http://www.w3.org/2000/svg" xmlns:xlink="http://www.w3.org/1999/xlink" id="warning-filled">
    <path fill-rule="evenodd" clip-rule="evenodd" d="M9.46854 3.96154C10.5936 2.01282 13.4064 2.01282 14.5315 3.96154L22.1258 17.1154C23.2509 19.0641 21.8446 21.5 19.5944 21.5H4.40562C2.15544 21.5 0.749069 19.0641 1.87416 17.1154L9.46854 3.96154ZM11.995 7.75C12.4092 7.75 12.745 8.08579 12.745 8.5V13.5C12.745 13.9142 12.4092 14.25 11.995 14.25C11.5808 14.25 11.245 13.9142 11.245 13.5V8.5C11.245 8.08579 11.5808 7.75 11.995 7.75ZM11.995 15.5C11.4427 15.5 10.995 15.9477 10.995 16.5C10.995 17.0523 11.4427 17.5 11.995 17.5H12.005C12.5573 17.5 13.005 17.0523 13.005 16.5C13.005 15.9477 12.5573 15.5 12.005 15.5H11.995Z" />
  </symbol>

</svg>